<svg xmlns="http://www.w3.org/2000/svg" viewBox="0 0 512 512"><defs><style>.cls-1{fill:#fcc8bc;}.cls-2{fill:#3e436d;}.cls-3{fill:#ead8b0;}.cls-4{fill:#fceabe;}.cls-5{fill:#fff;}.cls-6{fill:#e5e5e5;}.cls-7{fill:#f55b4b;}.cls-8{fill:#e0463b;}.cls-9{fill:#fc715a;}.cls-10{fill:#f9e1aa;}.cls-11{fill:#f6d372;}.cls-12{fill:#db1b1b;}.cls-13{fill:#e5e3e3;}.cls-14{fill:#3586cb;}.cls-15{fill:#366fca;}.cls-16{fill:#41c0e3;}</style></defs><title>Cinema</title><g id="BULINE"><circle class="cls-1" cx="256" cy="256" r="256"/></g><g id="Icons"><path class="cls-2" d="M482.58,375.25a256.08,256.08,0,0,1-453.16,0Z"/><path class="cls-3" d="M310.8,108.68a17.37,17.37,0,0,0,.24-2.81,17.81,17.81,0,0,0-17.81-17.81,17.79,17.79,0,0,0-28.38-14.31,8.2,8.2,0,0,0-12.35-5.83,13.37,13.37,0,0,0-21.86-6.78A17.8,17.8,0,0,0,203,54.65a17.79,17.79,0,0,0-35.13,2.92,13.35,13.35,0,0,0-18.81,3,8.18,8.18,0,0,0-11.1.31,13.39,13.39,0,0,0-23.86,3.45,13.26,13.26,0,0,0-5.86-1.37,13.4,13.4,0,0,0-13.4,13.4c0,.19,0,.37,0,.56a8.07,8.07,0,0,0-3-.56,8.21,8.21,0,0,0-8.21,8.22c0,.21,0,.43,0,.64a17.78,17.78,0,0,0-13.58,22.86A13.39,13.39,0,1,0,77,133.27c15.51,20.84,58.32,35.82,108.7,35.82,52.86,0,97.38-16.48,110.79-38.93a13.39,13.39,0,1,0,14.3-21.48Z"/><path class="cls-4" d="M320,121.41a13.49,13.49,0,0,1-.61,4,13.41,13.41,0,0,0-8.62-8.74,17.5,17.5,0,0,0,.24-2.82A17.8,17.8,0,0,0,293.24,96a17.79,17.79,0,0,0-28.39-14.31A8.2,8.2,0,0,0,252.5,75.9a13.37,13.37,0,0,0-21.87-6.78A17.78,17.78,0,0,0,203,62.64a17.79,17.79,0,0,0-35.13,2.91,13.37,13.37,0,0,0-18.8,3,8.19,8.19,0,0,0-11.11.31,13.39,13.39,0,0,0-23.86,3.45,13.37,13.37,0,0,0-19.25,12c0,.19,0,.37,0,.56a8.07,8.07,0,0,0-3-.56,8.22,8.22,0,0,0-8.21,8.22c0,.21,0,.43,0,.64a17.83,17.83,0,0,0-14,13.47,17.39,17.39,0,0,1-.46-4A17.8,17.8,0,0,1,83.7,85.19c0-.22,0-.43,0-.64a8.22,8.22,0,0,1,8.21-8.22,8.07,8.07,0,0,1,3,.56c0-.19,0-.37,0-.56a13.39,13.39,0,0,1,19.25-12,13.4,13.4,0,0,1,23.86-3.45,8.22,8.22,0,0,1,11.11-.31,13.38,13.38,0,0,1,18.8-3A17.79,17.79,0,0,1,203,54.65a17.79,17.79,0,0,1,27.65,6.49,13.37,13.37,0,0,1,21.87,6.78,8.2,8.2,0,0,1,12.35,5.83,17.78,17.78,0,0,1,28.39,14.31A17.8,17.8,0,0,1,311,105.87a17.5,17.5,0,0,1-.24,2.82A13.4,13.4,0,0,1,320,121.41Z"/><path class="cls-5" d="M275.65,400.36H100.7a10.69,10.69,0,0,1-10.64-9.58L64.46,146H311.89L286.28,390.78A10.69,10.69,0,0,1,275.65,400.36Z"/><path class="cls-6" d="M311.89,146l-2.63,25.14h-213l24,229.24H100.7a10.7,10.7,0,0,1-10.64-9.58L64.46,146Z"/><path class="cls-7" d="M312.77,146H270.65L252.91,400.36h22.74c5.47,0,11-4.13,11.52-9.58Z"/><polygon class="cls-7" points="129.35 145.99 173.39 145.99 173.39 400.36 144.72 400.36 129.35 145.99"/><polygon class="cls-7" points="241.97 145.99 197.93 145.99 197.93 400.36 226.6 400.36 241.97 145.99"/><polygon class="cls-8" points="312.77 145.98 310.15 171.12 268.89 171.12 270.65 145.98 312.77 145.98"/><polygon class="cls-8" points="173.39 145.98 173.39 171.12 130.87 171.12 129.35 145.98 173.39 145.98"/><polygon class="cls-8" points="241.98 145.98 240.46 171.12 197.93 171.12 197.93 145.98 241.98 145.98"/><path class="cls-7" d="M64.46,146H105.7l17.73,254.37H100.7a10.69,10.69,0,0,1-10.64-9.58Z"/><path class="cls-8" d="M120.21,400.36H100.7c-5.48,0-11-4.14-11.52-9.58L63.57,146H105.7l1.75,25.14h0a10.11,10.11,0,0,0-10,11.15Z"/><rect class="cls-5" x="56.03" y="133.9" width="264.28" height="14.85" rx="7.43"/><rect class="cls-5" x="83.82" y="392.93" width="209.29" height="14.85" rx="7.43"/><circle class="cls-9" cx="283.5" cy="259.27" r="8.62"/><circle class="cls-9" cx="285.44" cy="241.41" r="6.11"/><path class="cls-4" d="M93,112c-.16-.11-.31-.23-.47-.33a14.25,14.25,0,0,0-21.38,8.69,9.2,9.2,0,1,0,7.44,16.16,14.14,14.14,0,0,0,7.3,1.48,9.2,9.2,0,0,0,17.93-4.12,4.13,4.13,0,0,1,1.76-4.45A10.77,10.77,0,1,0,93,112Z"/><path class="cls-10" d="M103.57,138.82a9.15,9.15,0,0,1-1.66,3,9.26,9.26,0,0,1-11.13,2.31A9.15,9.15,0,0,1,85.93,138a14.12,14.12,0,0,1-7.32-1.49A9.19,9.19,0,0,1,66.25,122.9,9.2,9.2,0,0,0,80.8,133a14.31,14.31,0,0,0,7.31,1.49,9.2,9.2,0,0,0,15.46,4.36Z"/><path class="cls-5" d="M130.42,111.19c-.19,0-.37-.11-.56-.15A14.27,14.27,0,0,0,113,122.13a14,14,0,0,0-.21,4.46,9.2,9.2,0,1,0,12.56,12.59,14.17,14.17,0,0,0,7.38-1.13A9.2,9.2,0,0,0,148.13,128a4.13,4.13,0,0,1,.11-4.79,10.76,10.76,0,1,0-17.82-12Z"/><path class="cls-6" d="M149.59,132.75a8.89,8.89,0,0,1-.55,3.33,9.24,9.24,0,0,1-9.64,6,9.15,9.15,0,0,1-6.66-4,14.17,14.17,0,0,1-7.38,1.13,9.2,9.2,0,0,1-16.3-8.47,9.2,9.2,0,0,0,17.14,4.41,14.23,14.23,0,0,0,7.37-1.12,9.21,9.21,0,0,0,16-1.25Z"/><path class="cls-4" d="M184.89,127c.1-.17.22-.32.32-.49A14.27,14.27,0,0,0,176,105.38a9.19,9.19,0,1,0-16,7.83,14.13,14.13,0,0,0-1.31,7.34,9.2,9.2,0,0,0,4.56,17.82,4.12,4.12,0,0,1,4.49,1.66,10.76,10.76,0,0,0,17.46.64A10.76,10.76,0,0,0,184.89,127Z"/><path class="cls-10" d="M158.3,138.21a9,9,0,0,1-3-1.59,9.25,9.25,0,0,1-2.59-11.07,9.15,9.15,0,0,1,6-5,14.13,14.13,0,0,1,1.31-7.35,9.2,9.2,0,0,1,10.38-14.56,9.5,9.5,0,0,1,2.9,1.86,9.2,9.2,0,0,0-9.71,14.8,14.22,14.22,0,0,0-1.32,7.34,9.2,9.2,0,0,0-4,15.56Z"/><path class="cls-5" d="M213,136.63l.57.08a14.25,14.25,0,0,0,15-17.53,9.2,9.2,0,1,0-14-11,14.2,14.2,0,0,0-7.17,2,9.2,9.2,0,0,0-14,11.89,4.14,4.14,0,0,1,.47,4.77A10.77,10.77,0,1,0,213,136.63Z"/><path class="cls-6" d="M191.28,117.6a9,9,0,0,1,.12-3.38,9.24,9.24,0,0,1,8.83-7.15,9.13,9.13,0,0,1,7.11,3.2,14.17,14.17,0,0,1,7.19-2,9.19,9.19,0,0,1,17.21,6.39,9.2,9.2,0,0,0-17.55-2.27,14.26,14.26,0,0,0-7.18,2,9.19,9.19,0,0,0-15.73,3.21Z"/><path class="cls-4" d="M242.46,111.46l-.54.21a14.25,14.25,0,0,0-4.87,22.55,9.2,9.2,0,1,0,17.53,3,14.22,14.22,0,0,0,5.35-5.2,9.2,9.2,0,0,0,6.7-17.13,4.14,4.14,0,0,1-2.69-4,10.77,10.77,0,1,0-21.48.57Z"/><path class="cls-10" d="M270.58,117.89A9.19,9.19,0,0,1,259.93,132a14.17,14.17,0,0,1-5.35,5.21,9.2,9.2,0,0,1-18.19,2.56,9.2,9.2,0,0,0,16.52-6.35,14.22,14.22,0,0,0,5.35-5.2,9.2,9.2,0,0,0,12.32-10.31Z"/><path class="cls-5" d="M308,129c.13-.15.27-.28.39-.43a14.27,14.27,0,0,0-2-20.07,14.11,14.11,0,0,0-3.86-2.25,9.2,9.2,0,1,0-17,5.29,14.27,14.27,0,0,0-2.42,7.05,9.2,9.2,0,0,0,1.78,18.31,4.14,4.14,0,0,1,4.19,2.32A10.76,10.76,0,1,0,308,129Z"/><path class="cls-6" d="M280,136a9.13,9.13,0,0,1-2.7-2,9.24,9.24,0,0,1-.86-11.33,9.15,9.15,0,0,1,6.69-4,14.14,14.14,0,0,1,2.42-7.07A9.19,9.19,0,0,1,298,98.77a9.36,9.36,0,0,1,2.58,2.28,9.2,9.2,0,0,0-11.86,13.14,14.28,14.28,0,0,0-2.43,7A9.21,9.21,0,0,0,280,136Z"/><path class="cls-5" d="M201.94,64.13c-.12-.15-.22-.31-.35-.46a14.26,14.26,0,0,0-20.08-1.87,14,14,0,0,0-2.95,3.36,9.19,9.19,0,1,0,1.95,17.67A14.07,14.07,0,0,0,187,86.55a9.2,9.2,0,0,0,18.31,1.76,4.13,4.13,0,0,1,3.08-3.67,10.66,10.66,0,0,0,5.38-3.19,10.77,10.77,0,0,0-11.8-17.32Z"/><path class="cls-6" d="M203.44,92.94a9.16,9.16,0,0,1-2.51,2.27,9.19,9.19,0,0,1-14-8.66,14.09,14.09,0,0,1-6.47-3.72,9.19,9.19,0,0,1-10.17-14.7,9.34,9.34,0,0,1,2.73-2.1A9.2,9.2,0,0,0,183.7,80.18a14,14,0,0,0,6.46,3.73,9.19,9.19,0,0,0,13.28,9Z"/><path class="cls-5" d="M277.68,72.73c0-.19,0-.38.05-.58a14.26,14.26,0,0,0-13.67-14.83,13.88,13.88,0,0,0-4.43.52,9.2,9.2,0,1,0-10.39,14.43,14.21,14.21,0,0,0,2.31,7.09A9.19,9.19,0,0,0,264,92.92a4.13,4.13,0,0,1,4.74-.66,10.77,10.77,0,1,0,9-19.53Z"/><path class="cls-6" d="M259.51,95.13a9.19,9.19,0,0,1-8-15.77,14.25,14.25,0,0,1-2.31-7.1A9.19,9.19,0,0,1,255,54.81a9.19,9.19,0,0,0-1.58,17.62,14.24,14.24,0,0,0,2.3,7.1,9.2,9.2,0,0,0,3.83,15.6Z"/><path class="cls-5" d="M114.57,64.3c-.17.08-.35.14-.53.23a14.26,14.26,0,0,0-4,22.73,9.19,9.19,0,1,0,17.63,2.27,14.14,14.14,0,0,0,5.14-5.4,9.2,9.2,0,0,0,6-17.38A4.13,4.13,0,0,1,136,62.89a10.77,10.77,0,1,0-21.45,1.41Z"/><path class="cls-6" d="M142.92,69.63a9,9,0,0,1,1.61,3,9.24,9.24,0,0,1-3.95,10.66,9.14,9.14,0,0,1-7.75.86,14.1,14.1,0,0,1-5.14,5.41A9.19,9.19,0,0,1,111,96a9.39,9.39,0,0,1-1.4-3.15,9.2,9.2,0,0,0,16.26-7,14.25,14.25,0,0,0,5.15-5.4,9.19,9.19,0,0,0,11.9-10.78Z"/><ellipse class="cls-11" cx="188.17" cy="273.75" rx="65.4" ry="44.83"/><path class="cls-12" d="M424.53,69.81l-21.65,213.1-16.21-1.65,21.65-213.1a3.25,3.25,0,0,1,3.56-2.9l9.75,1A3.25,3.25,0,0,1,424.53,69.81Z"/><polygon class="cls-5" points="421.41 100.53 419.41 120.2 404 110.67 406 91 421.41 100.53"/><polygon class="cls-5" points="417.94 134.67 415.94 154.34 400.53 144.81 402.53 125.15 417.94 134.67"/><polygon class="cls-5" points="414.47 168.82 412.47 188.48 397.07 178.95 399.06 159.29 414.47 168.82"/><polygon class="cls-5" points="411 202.96 409 222.62 393.6 213.1 395.6 193.43 411 202.96"/><polygon class="cls-5" points="407.53 237.1 405.54 256.77 390.13 247.24 392.13 227.57 407.53 237.1"/><path class="cls-5" d="M331.62,174.58H436.46a7.36,7.36,0,0,1,7.36,7.36v8.59a0,0,0,0,1,0,0H324.26a0,0,0,0,1,0,0v-8.59A7.36,7.36,0,0,1,331.62,174.58Z"/><rect class="cls-13" x="324.26" y="184.4" width="119.56" height="6.13"/><path class="cls-14" d="M424.8,407.79H343.27a9.36,9.36,0,0,1-9.33-8.74L321.13,205H446.94l-12.81,194A9.34,9.34,0,0,1,424.8,407.79Z"/><path class="cls-15" d="M445.6,225.32H416.9a70.39,70.39,0,0,0-70.24,75l7.1,107.45H343.27a9.35,9.35,0,0,1-9.33-8.74L321.13,205H446.94Z"/><rect class="cls-5" x="314.11" y="189.86" width="139.86" height="15.17" rx="7.58"/><path class="cls-5" d="M322,218.76s29.71,72.57,118.37,85.13l-2.85,43.26s-69.75,1.42-111.24-51.45Z"/><path class="cls-5" d="M436,371.13S376.51,376.89,329.67,343l1.78,23.64s55,24.73,103.58,18.83Z"/><circle class="cls-16" cx="425.47" cy="267.12" r="10.51"/><circle class="cls-16" cx="425.47" cy="245.23" r="7.44"/></g></svg>